<!DOCTYPE svg PUBLIC "-//W3C//DTD SVG 20010904//EN" "http://www.w3.org/TR/2001/REC-SVG-20010904/DTD/svg10.dtd"[]><svg version="1.0" xmlns="http://www.w3.org/2000/svg" width="133" height="135" viewBox="0 0 267.000000 271.000000" preserveAspectRatio="xMidYMid meet"><g transform="translate(0.000000,271.000000) scale(0.100000,-0.100000)" fill="#000000" stroke="none"><path d="M1275 2554 c-37 -18 -1141 -1118 -1161 -1156 -8 -15 -14 -46 -14 -70 l0 -43 578 -578 c348 -350 590 -585 611 -594 69 -30 56 -41 669 570 315 315 580 584 588 599 8 15 14 44 14 65 0 36 -18 56 -577 616 -318 318 -590 585 -605 593 -35 18 -65 18 -103 -2z m92 -44 c32 -12 1106 -1080 1129 -1122 18 -34 18 -72 0 -106 -8 -15 -261 -273 -563 -573 -589 -587 -575 -576 -646 -545 -18 8 -272 255 -584 568 l-553 553 0 50 0 50 558 558 c306 307 566 563 577 567 28 12 49 12 82 0z" /><path d="M1315 2090 c-22 -5 -76 -14 -120 -20 -147 -21 -241 -86 -318 -218 -62 -105 -69 -125 -68 -217 0 -43 -4 -96 -11 -116 -9 -31 -7 -47 11 -100 14 -43 21 -88 21 -142 0 -84 -1 -82 75 -174 27 -32 30 -44 32 -107 0 -39 2 -73 3 -76 1 -3 1 -36 0 -75 -1 -69 -1 -71 39 -115 23 -24 41 -50 41 -57 0 -7 20 -35 45 -63 25 -28 45 -55 45 -60 0 -18 61 -41 137 -50 43 -6 102 -15 130 -21 29 -6 62 -7 73 -4 30 9 107 88 174 177 32 42 73 86 93 98 26 15 33 25 28 38 -20 51 -27 124 -17 169 17 77 37 123 65 146 45 38 72 131 50 172 -9 16 -8 36 3 80 35 149 26 348 -20 450 -45 98 -183 224 -291 264 -63 24 -164 33 -220 21z m192 -71 c39 -25 73 -65 73 -89 0 -9 9 -25 21 -36 17 -16 20 -27 16 -74 -3 -30 -8 -69 -12 -86 -5 -21 -1 -42 10 -63 15 -30 15 -34 0 -57 -9 -14 -37 -34 -62 -45 -25 -10 -58 -29 -74 -40 -25 -17 -38 -19 -84 -14 -44 6 -71 19 -142 67 -95 65 -253 190 -292 232 l-25 26 27 28 c15 16 27 33 27 40 0 7 7 12 15 12 9 0 18 7 22 16 3 9 43 34 89 56 68 32 100 41 171 48 112 10 179 4 220 -21z m-478 -323 l25 -26 -23 -31 c-22 -29 -22 -31 -7 -97 8 -36 13 -68 11 -70 -2 -2 -17 5 -33 17 -37 26 -39 26 -51 2 -9 -16 -4 -23 30 -47 33 -23 42 -25 49 -14 5 8 12 11 16 8 4 -4 -1 -19 -10 -33 l-17 -26 -37 22 c-20 13 -46 29 -58 36 -18 11 -23 11 -39 -7 -24 -27 -31 -25 -40 8 -13 43 -13 103 -2 147 5 22 11 55 13 74 3 34 28 103 47 128 7 10 21 3 56 -26 25 -21 57 -51 70 -65z m637 -133 c3 -10 10 -26 15 -35 17 -32 11 -51 -13 -44 -13 4 -34 8 -48 10 -14 2 -36 6 -50 10 -33 8 -43 0 -69 -58 -32 -74 -28 -102 24 -166 25 -30 45 -58 45 -62 0 -21 -22 -2 -65 55 -50 67 -53 85 -27 180 14 53 29 67 73 67 54 0 91 19 83 42 -4 12 0 18 11 18 8 0 18 -8 21 -17z m-552 -36 c-9 -24 -24 -11 -24 21 0 24 2 25 15 11 9 -9 13 -23 9 -32z m77 -65 c27 -23 30 -75 6 -99 -24 -24 -76 -21 -99 6 -25 31 -23 57 7 86 29 30 55 32 86 7z m175 -7 c3 -8 -27 -62 -72 -127 -97 -142 -91 -135 -110 -116 -15 15 -10 26 66 137 79 116 104 139 116 106z m67 9 c18 -7 11 -50 -16 -88 -16 -23 -18 -32 -9 -47 13 -21 3 -32 -18 -18 -23 14 -36 11 -68 -16 -55 -46 -54 -25 4 58 55 79 84 117 90 117 1 0 9 -2 17 -6z m323 -108 c-8 -50 -18 -76 -28 -76 -6 0 -7 7 -2 18 4 9 9 36 12 59 2 24 8 40 14 37 5 -3 7 -20 4 -38z m-727 -89 c74 -50 142 -92 152 -94 11 -3 26 9 45 34 36 50 49 63 36 38 -5 -11 -13 -42 -17 -69 -7 -44 -6 -49 10 -42 15 5 16 2 11 -29 -8 -41 0 -59 51 -110 31 -31 40 -35 55 -26 9 6 35 14 58 17 36 6 40 4 40 -14 0 -11 3 -27 6 -35 7 -18 -32 -30 -58 -16 -12 6 -25 6 -39 -1 -11 -7 -28 -8 -37 -4 -9 3 -39 7 -67 6 -27 0 -55 5 -62 10 -6 5 -22 6 -35 3 -23 -6 -25 -2 -38 51 -18 72 -34 89 -107 109 -106 29 -118 37 -136 97 -22 74 -31 181 -14 172 6 -4 72 -48 146 -97z m679 79 c6 -30 -26 -66 -58 -66 -39 0 -38 16 2 57 34 35 51 38 56 9z m109 -124 c-16 -8 -37 8 -37 27 0 20 1 20 23 -2 12 -12 18 -24 14 -25z m-540 -44 c-3 -7 -5 -2 -5 12 0 14 2 19 5 13 2 -7 2 -19 0 -25z m-97 12 c0 -5 -2 -10 -4 -10 -3 0 -8 5 -11 10 -3 6 -1 10 4 10 6 0 11 -4 11 -10z m290 -25 c0 -8 -4 -17 -10 -20 -6 -4 -10 5 -10 20 0 15 4 24 10 20 6 -3 10 -12 10 -20z m-14 -113 c-23 -23 -29 -10 -11 24 8 16 16 36 17 44 0 8 3 0 5 -19 3 -22 -1 -39 -11 -49z m-49 56 c21 -17 4 -28 -23 -16 -20 9 -30 9 -46 -1 -24 -15 -36 -7 -19 12 13 17 70 20 88 5z m302 -54 c3 -2 -4 -10 -14 -18 -15 -11 -21 -32 -26 -95 -8 -90 -41 -174 -72 -179 -16 -3 -16 -1 3 30 28 46 25 58 -11 58 -26 0 -30 3 -27 23 2 16 11 23 32 25 16 2 32 -2 37 -10 6 -9 9 -3 9 18 0 17 6 51 14 76 8 27 10 52 5 59 -15 24 -10 31 18 24 16 -4 30 -9 32 -11z m-331 -11 c5 -17 -26 -29 -40 -15 -6 6 -7 15 -3 22 9 14 37 9 43 -7z m236 -60 c-10 -56 -22 -75 -47 -71 -34 5 -34 44 -1 79 40 41 57 38 48 -8z m-525 1 c23 -29 28 -69 10 -80 -16 -10 -89 27 -89 45 0 9 -3 26 -6 39 -6 20 -3 22 29 22 26 0 41 -7 56 -26z m51 -109 c0 -18 -5 -25 -18 -25 -28 0 -34 11 -15 32 22 25 33 23 33 -7z m70 13 c0 -5 0 -15 0 -23 0 -8 -9 -15 -20 -15 -14 0 -20 7 -20 24 0 17 5 23 20 22 11 0 20 -4 20 -8z m75 -14 c0 -12 -8 -20 -22 -22 -17 -3 -23 2 -23 16 0 20 16 33 35 28 6 -2 10 -11 10 -22z m65 11 c15 -18 5 -35 -21 -35 -14 0 -19 7 -19 25 0 28 21 33 40 10z m58 -13 c3 -17 -2 -22 -17 -22 -14 0 -21 6 -21 18 0 38 33 41 38 4z m130 0 c3 -17 -2 -22 -17 -22 -14 0 -21 6 -21 18 0 38 33 41 38 4z m-68 -2 c0 -13 -7 -20 -19 -20 -22 0 -35 15 -26 30 12 19 45 11 45 -10z m-447 -18 c9 -8 17 -25 17 -36 0 -29 28 -67 47 -64 8 2 19 -5 24 -14 5 -10 13 -26 18 -35 7 -14 19 -17 55 -15 45 3 46 3 46 -28 0 -36 16 -45 63 -36 30 6 33 9 29 36 -4 27 -1 30 22 30 21 0 26 -5 26 -25 0 -14 -5 -25 -12 -25 -7 0 -8 -3 -2 -9 17 -16 121 -20 141 -6 10 8 22 15 26 15 14 0 -4 -42 -31 -76 l-26 -32 -130 5 -130 6 -59 45 c-32 24 -70 63 -84 86 -14 22 -40 62 -57 88 -25 37 -31 56 -28 83 4 36 10 37 45 7z m87 -47 c0 -27 -9 -32 -28 -13 -18 18 -14 38 8 38 15 0 20 -7 20 -25z m70 0 c0 -20 -5 -25 -25 -25 -20 0 -25 5 -25 25 0 20 5 25 25 25 20 0 25 -5 25 -25z m70 0 c0 -20 -5 -25 -25 -25 -20 0 -25 5 -25 25 0 20 5 25 25 25 20 0 25 -5 25 -25z m70 0 c0 -20 -5 -25 -25 -25 -20 0 -25 5 -25 25 0 20 5 25 25 25 20 0 25 -5 25 -25z m70 0 c0 -20 -5 -25 -25 -25 -20 0 -25 5 -25 25 0 20 5 25 25 25 20 0 25 -5 25 -25z m50 0 c0 -18 -5 -25 -20 -25 -15 0 -20 7 -20 25 0 18 5 25 20 25 15 0 20 -7 20 -25z m70 0 c0 -21 -5 -25 -30 -25 -25 0 -30 4 -30 25 0 21 5 25 30 25 25 0 30 -4 30 -25z m70 0 c0 -20 -5 -25 -25 -25 -20 0 -25 5 -25 25 0 20 5 25 25 25 20 0 25 -5 25 -25z m-380 -70 c0 -20 -5 -25 -25 -25 -20 0 -25 5 -25 25 0 20 5 25 25 25 20 0 25 -5 25 -25z m60 0 c0 -20 -5 -25 -25 -25 -20 0 -25 5 -25 25 0 20 5 25 25 25 20 0 25 -5 25 -25z m75 0 c0 -14 -8 -21 -27 -23 -24 -3 -28 0 -28 23 0 23 4 26 28 23 19 -2 27 -9 27 -23z m115 -1 c0 -24 -2 -25 -47 -22 -41 3 -48 6 -51 26 -3 20 0 22 47 22 48 0 51 -2 51 -26z m78 4 c-2 -17 -11 -24 -30 -26 -24 -3 -28 0 -28 22 0 22 4 26 31 26 26 0 30 -3 27 -22z m-228 -73 c0 -20 -5 -25 -25 -25 -20 0 -25 5 -25 25 0 20 5 25 25 25 20 0 25 -5 25 -25z m120 0 c0 -16 -6 -25 -15 -25 -9 0 -15 9 -15 25 0 16 6 25 15 25 9 0 15 -9 15 -25z m88 -2 c3 -17 -3 -24 -22 -29 -31 -7 -55 4 -35 17 10 6 11 9 2 9 -7 0 -13 7 -13 16 0 11 8 14 33 12 24 -2 33 -8 35 -25z" /><path d="M1140 1450 c0 -5 7 -10 15 -10 8 0 15 5 15 10 0 6 -7 10 -15 10 -8 0 -15 -4 -15 -10z" /><path d="M1140 1410 c0 -5 5 -10 10 -10 6 0 10 5 10 10 0 6 -4 10 -10 10 -5 0 -10 -4 -10 -10z" /></g></svg>